<svg width="142" height="40" viewBox="0 0 142 40" fill="none" xmlns="http://www.w3.org/2000/svg">
<path d="M8.55234 5.70158C8.55234 8.06325 6.63783 9.97775 4.27617 9.97775C1.91451 9.97775 0 8.06325 0 5.70158C0 3.33992 1.91451 1.42542 4.27617 1.42542C6.63783 1.42542 8.55234 3.33992 8.55234 5.70158Z" fill="#97BFF6"/>
<path d="M8.55234 18.5301C8.55234 20.8917 6.63783 22.8062 4.27617 22.8062C1.91451 22.8062 0 20.8917 0 18.5301C0 16.1684 1.91451 14.2539 4.27617 14.2539C6.63783 14.2539 8.55234 16.1684 8.55234 18.5301Z" fill="#97BFF6"/>
<path d="M8.55234 31.3586C8.55234 33.7202 6.63783 35.6347 4.27617 35.6347C1.91451 35.6347 0 33.7202 0 31.3586C0 28.9969 1.91451 27.0824 4.27617 27.0824C6.63783 27.0824 8.55234 28.9969 8.55234 31.3586Z" fill="#97BFF6"/>
<path d="M46.5925 18.7305C46.5925 21.7595 46.1025 24.395 45.1226 26.637C44.1426 28.8641 42.784 30.6533 41.0469 32.0045L46.4366 36.2361L42.1827 40L35.2785 34.4543C34.4915 34.588 33.6749 34.6548 32.8286 34.6548C30.1411 34.6548 27.7432 34.0089 25.6348 32.7171C23.5264 31.4254 21.8932 29.5843 20.7351 27.1938C19.5769 24.7884 18.9904 22.0267 18.9756 18.9087V17.3051C18.9756 14.1128 19.5472 11.3066 20.6905 8.88641C21.8486 6.45137 23.4745 4.58797 25.568 3.29621C27.6764 1.98961 30.0817 1.3363 32.784 1.3363C35.4864 1.3363 37.8843 1.98961 39.9778 3.29621C42.0862 4.58797 43.712 6.45137 44.8553 8.88641C46.0134 11.3066 46.5925 14.1054 46.5925 17.2829V18.7305ZM39.8219 17.2606C39.8219 13.8604 39.2132 11.2769 37.9956 9.51002C36.7781 7.74313 35.0409 6.85969 32.784 6.85969C30.542 6.85969 28.8123 7.73571 27.5947 9.48775C26.3772 11.2249 25.761 13.7788 25.7462 17.1492V18.7305C25.7462 22.0416 26.3549 24.6102 27.5725 26.4365C28.79 28.2628 30.542 29.1759 32.8286 29.1759C35.0706 29.1759 36.793 28.2999 37.9956 26.5479C39.1983 24.781 39.8071 22.2123 39.8219 18.8419V17.2606Z" fill="#1C6DDB"/>
<path d="M57.862 34.2094H51.4032V10.1114H57.862V34.2094ZM51.0246 3.87528C51.0246 2.91017 51.3438 2.11581 51.9823 1.4922C52.6356 0.868597 53.519 0.556793 54.6326 0.556793C55.7313 0.556793 56.6074 0.868597 57.2607 1.4922C57.914 2.11581 58.2406 2.91017 58.2406 3.87528C58.2406 4.85523 57.9065 5.65702 57.2384 6.28062C56.5851 6.90423 55.7165 7.21604 54.6326 7.21604C53.5487 7.21604 52.6727 6.90423 52.0045 6.28062C51.3512 5.65702 51.0246 4.85523 51.0246 3.87528Z" fill="#1C6DDB"/>
<path d="M84.8999 22.3831C84.8999 26.2435 84.0758 29.2576 82.4277 31.4254C80.7796 33.5783 78.4782 34.6548 75.5235 34.6548C72.9103 34.6548 70.8241 33.6526 69.2651 31.6481L68.9756 34.2094H63.1849V0H69.6215V12.2717C71.1062 10.5345 73.0587 9.66592 75.4789 9.66592C78.4188 9.66592 80.7202 10.7498 82.3832 12.9176C84.061 15.0705 84.8999 18.1069 84.8999 22.0267V22.3831ZM78.4633 21.9154C78.4633 19.4803 78.0773 17.706 77.3052 16.5924C76.5331 15.464 75.3824 14.8998 73.8531 14.8998C71.8041 14.8998 70.3936 15.7387 69.6215 17.4165V26.9265C70.4084 28.6192 71.8338 29.4655 73.8976 29.4655C75.9763 29.4655 77.3423 28.441 77.9956 26.392C78.3074 25.412 78.4633 23.9198 78.4633 21.9154Z" fill="#1C6DDB"/>
<path d="M89.2206 31.0468C89.2206 30.0223 89.5621 29.1908 90.2451 28.5523C90.9429 27.9139 91.8115 27.5947 92.8509 27.5947C93.9051 27.5947 94.7737 27.9139 95.4567 28.5523C96.1545 29.1908 96.5034 30.0223 96.5034 31.0468C96.5034 32.0564 96.1619 32.8805 95.4789 33.5189C94.7959 34.1425 93.9199 34.4543 92.8509 34.4543C91.7967 34.4543 90.9281 34.1425 90.2451 33.5189C89.5621 32.8805 89.2206 32.0564 89.2206 31.0468Z" fill="#1C6DDB"/>
<path d="M108.953 34.2094H102.495V0H108.953V34.2094Z" fill="#1C6DDB"/>
<path d="M121.069 34.2094H114.61V10.1114H121.069V34.2094ZM114.232 3.87528C114.232 2.91017 114.551 2.11581 115.189 1.4922C115.843 0.868597 116.726 0.556793 117.84 0.556793C118.938 0.556793 119.814 0.868597 120.468 1.4922C121.121 2.11581 121.448 2.91017 121.448 3.87528C121.448 4.85523 121.114 5.65702 120.446 6.28062C119.792 6.90423 118.924 7.21604 117.84 7.21604C116.756 7.21604 115.88 6.90423 115.212 6.28062C114.558 5.65702 114.232 4.85523 114.232 3.87528Z" fill="#1C6DDB"/>
<path d="M141.113 18.5301C141.113 20.8917 139.199 22.8062 136.837 22.8062C134.476 22.8062 132.561 20.8917 132.561 18.5301C132.561 16.1684 134.476 14.2539 136.837 14.2539C139.199 14.2539 141.113 16.1684 141.113 18.5301Z" fill="#97BFF6"/>
</svg>
