<svg width="504" height="598" viewBox="0 0 504 598" fill="none" xmlns="http://www.w3.org/2000/svg">
<g clip-path="url(#clip0)">
<path d="M435.027 543.853L421.069 530.972L395.302 558.892L382.78 547.335L449.653 474.872L474.995 498.259C483.31 505.933 487.998 513.731 489.059 521.652C490.12 529.573 487.374 537.084 480.821 544.184C476.351 549.028 471.429 552.012 466.054 553.134C460.744 554.254 455.198 553.775 449.418 551.697L437.724 596.843L437.127 597.49L423.713 585.111L435.027 543.853ZM430.392 520.869L443.261 532.745C447.485 536.643 451.765 538.626 456.1 538.695C460.466 538.731 464.364 536.891 467.793 533.175C471.376 529.293 473.042 525.27 472.79 521.107C472.572 516.973 470.316 512.864 466.021 508.778L452.806 496.581L430.392 520.869Z" fill="#498AE2"/>
<path d="M389.57 578.997L384.888 557.42L390.921 554.624L396.534 586.419L391.443 588.778L376.527 572.071L379.734 594.204L374.644 596.563L353.988 571.739L360.02 568.944L373.437 586.219L370.125 564.261L374.783 562.102L389.57 578.997Z" fill="#A4C5F1"/>
<path d="M253.583 527.283L284.057 493.902L295.872 500.66L249.445 547.703L239.475 542L249.692 497.304L216.544 528.883L206.574 523.18L223.539 459.285L235.354 466.043L222.412 508.908L255.144 477.364L264.267 482.582L253.583 527.283Z" fill="#A4C5F1"/>
<path d="M188.64 420.135L151.156 429.3L148.822 453.747L131.343 458.021L144.237 352.318L159.324 348.629L219.603 436.442L202.057 440.732L188.64 420.135ZM152.56 414.588L180.606 407.731L156.768 371.018L152.56 414.588Z" fill="#A4C5F1"/>
<path d="M208.829 445.509L187.799 476.254L181.377 475.033L202.093 445.806L183.131 442.202L184.072 437.252L209.48 442.082L208.829 445.509Z" fill="#A4C5F1"/>
<path d="M415.697 459.531L456.486 376.303L483.666 389.624C492.636 394.02 498.538 399.252 501.374 405.32C504.209 411.389 503.797 418.158 500.136 425.627C498.269 429.438 495.607 432.387 492.152 434.474C488.697 436.562 484.671 437.519 480.072 437.345C483.76 440.664 485.934 444.589 486.596 449.12C487.313 453.63 486.514 458.248 484.198 462.973C480.369 470.785 475.031 475.613 468.183 477.455C461.372 479.316 453.518 478.066 444.621 473.706L415.697 459.531ZM447.883 428.729L435.137 454.738L450.443 462.239C454.764 464.357 458.692 464.888 462.227 463.832C465.762 462.776 468.51 460.247 470.471 456.246C474.711 447.596 472.665 441.111 464.333 436.791L447.883 428.729ZM453.094 418.097L466.603 424.718C470.888 426.818 474.723 427.445 478.11 426.6C481.551 425.734 484.187 423.434 486.018 419.7C488.035 415.584 488.366 412.06 487.011 409.128C485.692 406.213 482.672 403.599 477.951 401.285L464.552 394.718L453.094 418.097Z" fill="#A4C5F1"/>
<path d="M212.695 331.446L198 305.993L206.313 301.193C209.056 299.61 211.477 298.981 213.575 299.308C215.674 299.635 217.383 300.94 218.702 303.224C219.374 304.39 219.68 305.612 219.619 306.89C219.557 308.169 219.097 309.398 218.238 310.578C219.764 310.194 221.182 310.315 222.491 310.942C223.805 311.551 224.879 312.578 225.714 314.023C227.093 316.412 227.42 318.671 226.694 320.799C225.979 322.921 224.262 324.768 221.541 326.339L212.695 331.446ZM210.279 317.527L214.871 325.481L219.552 322.779C220.874 322.016 221.708 321.075 222.055 319.958C222.402 318.841 222.222 317.671 221.516 316.447C219.989 313.801 217.92 313.193 215.31 314.623L210.279 317.527ZM208.402 314.276L212.533 311.89C213.843 311.134 214.687 310.235 215.063 309.194C215.444 308.135 215.304 307.035 214.645 305.893C213.918 304.634 213.049 303.924 212.038 303.762C211.037 303.593 209.815 303.926 208.371 304.76L204.274 307.126L208.402 314.276Z" fill="#498AE2"/>
<path d="M37.3492 560.76L24.3793 530.235L33.0041 523.073L53.1384 576.455C55.9731 584.341 54.7597 590.468 49.4982 594.837C48.3216 595.814 46.8569 596.693 45.1043 597.473L39.9059 591.212L41.5206 590.04C43.5631 588.344 44.7815 586.695 45.176 585.092C45.6111 583.493 45.4002 581.568 44.5433 579.316L43.1372 575.252L0.702637 549.895L9.42737 542.65L37.3492 560.76Z" fill="#A4C5F1"/>
<path d="M305.636 497.019C308.115 497.895 310.423 497.91 312.561 497.064C314.698 496.217 316.192 494.765 317.042 492.708L326.398 496.015C325.33 498.691 323.574 500.927 321.131 502.724C318.697 504.493 315.863 505.577 312.627 505.975C309.392 506.373 306.181 506.009 302.994 504.882C296.811 502.696 292.607 498.988 290.381 493.757C288.155 488.526 288.272 482.431 290.732 475.471L291.089 474.463C293.435 467.826 297.109 463.154 302.111 460.448C307.121 457.715 312.732 457.446 318.942 459.642C324.199 461.5 327.938 464.53 330.161 468.732C332.419 472.916 332.761 477.496 331.186 482.472L321.83 479.164C322.605 476.626 322.46 474.262 321.396 472.072C320.359 469.892 318.587 468.359 316.081 467.473C312.867 466.337 309.98 466.616 307.42 468.311C304.869 469.978 302.754 473.145 301.074 477.812L300.518 479.384C298.846 484.113 298.455 487.95 299.344 490.895C300.27 493.822 302.368 495.863 305.636 497.019Z" fill="#A4C5F1"/>
<path d="M56.2094 573.128C58.0051 569.242 60.3595 566.547 63.2723 565.044C66.1924 563.526 69.1891 563.477 72.2624 564.897C74.9732 566.149 76.7329 568.094 77.5415 570.732L83.5107 557.813L89.2554 560.467L72.7055 596.286L67.5045 593.883L68.4276 591.14C65.7615 592.398 62.9943 592.365 60.1259 591.039C57.1314 589.656 55.2538 587.345 54.493 584.107C53.7481 580.877 54.3202 577.217 56.2094 573.128ZM61.7278 576.272C60.5426 578.837 60.1124 581.072 60.4373 582.977C60.7851 584.873 61.881 586.247 63.725 587.099C66.0733 588.184 68.2689 587.944 70.3117 586.379L75.2896 575.605C75.1675 573.096 73.9322 571.3 71.5839 570.214C69.7242 569.355 67.9524 569.423 66.2685 570.419C64.5918 571.398 63.0782 573.35 61.7278 576.272Z" fill="#498AE2"/>
<path d="M99.1686 438.793C102.184 435.753 105.317 434.025 108.568 433.607C111.831 433.178 114.665 434.155 117.068 436.54C119.188 438.643 120.177 441.072 120.036 443.827L130.059 433.724L134.552 438.181L106.762 466.192L102.695 462.157L104.499 459.894C101.564 460.166 98.9743 459.19 96.7311 456.964C94.3894 454.641 93.4141 451.828 93.8052 448.525C94.2086 445.234 95.9964 441.99 99.1686 438.793ZM103.281 443.633C101.291 445.639 100.123 447.592 99.778 449.493C99.4571 451.394 100.018 453.06 101.46 454.491C103.296 456.312 105.442 456.837 107.896 456.064L116.255 447.639C116.997 445.239 116.45 443.128 114.614 441.306C113.159 439.863 111.471 439.322 109.548 439.682C107.638 440.03 105.549 441.347 103.281 443.633Z" fill="#498AE2"/>
<path d="M122.846 565.64C121.284 570.244 118.481 573.464 114.436 575.3C109.671 577.463 105.112 577.509 100.76 575.437C96.3965 573.341 92.9703 569.55 90.4812 564.066C88.8445 560.46 88.081 556.866 88.1906 553.283C88.3002 549.7 89.3134 546.492 91.23 543.659C93.1467 540.826 95.8546 538.615 99.3538 537.027C104.814 534.549 110.076 534.637 115.141 537.291C120.207 539.944 124.302 544.714 127.428 551.601L128.587 554.155C133.065 564.021 134.272 572.549 132.207 579.737C130.142 586.926 124.747 592.546 116.021 596.597L114.941 597.087L111.514 589.537L112.817 588.945C118.119 586.449 121.628 583.3 123.346 579.501C125.052 575.676 124.885 571.056 122.846 565.64ZM113.095 567.302C114.907 566.48 116.368 565.182 117.479 563.41C118.59 561.637 119.159 559.627 119.186 557.38L117.567 553.811C115.737 549.78 113.446 546.909 110.694 545.198C107.943 543.487 105.264 543.223 102.658 544.406C100.052 545.589 98.4621 547.624 97.8874 550.512C97.3262 553.364 97.7957 556.443 99.296 559.748C100.853 563.179 102.891 565.591 105.409 566.985C107.927 568.379 110.489 568.485 113.095 567.302Z" fill="#A4C5F1"/>
<path d="M350.833 424.83C352.1 427.517 352.535 430.243 352.14 433.008C351.733 435.748 350.614 438.286 348.781 440.623C352.289 440.596 355.358 441.375 357.989 442.96C360.644 444.532 362.659 446.775 364.032 449.688C366.305 454.511 366.468 459.115 364.521 463.501C362.562 467.863 358.854 471.329 353.397 473.902C347.914 476.486 342.849 477.139 338.201 475.861C333.579 474.571 330.137 471.527 327.876 466.73C326.491 463.791 326.031 460.785 326.496 457.711C326.962 454.637 328.314 451.805 330.552 449.215C327.608 449.129 324.951 448.371 322.578 446.941C320.22 445.475 318.407 443.398 317.14 440.71C314.938 436.039 314.708 431.619 316.45 427.453C318.191 423.286 321.639 419.988 326.794 417.558C331.973 415.117 336.724 414.551 341.047 415.859C345.369 417.168 348.631 420.158 350.833 424.83ZM354.609 453.577C353.331 450.865 351.48 449.066 349.056 448.183C346.646 447.262 344.102 447.433 341.423 448.695C338.745 449.958 336.988 451.799 336.152 454.219C335.342 456.627 335.582 459.199 336.872 461.937C338.139 464.625 339.934 466.403 342.259 467.272C344.608 468.129 347.172 467.903 349.952 466.593C352.731 465.283 354.524 463.486 355.332 461.202C356.164 458.907 355.923 456.365 354.609 453.577ZM341.821 429.492C340.696 427.106 339.078 425.474 336.966 424.597C334.843 423.695 332.606 423.797 330.256 424.905C327.907 426.012 326.399 427.629 325.733 429.754C325.055 431.853 325.314 434.172 326.51 436.708C327.693 439.22 329.317 440.895 331.38 441.734C333.468 442.561 335.687 442.421 338.036 441.313C340.386 440.206 341.894 438.589 342.56 436.464C343.251 434.328 343.005 432.003 341.821 429.492Z" fill="#A4C5F1"/>
<path d="M149.825 597H133.036V523.804H149.825V597ZM132 504.794C132 502.269 132.806 500.172 134.418 498.503C136.076 496.834 138.425 496 141.465 496C144.505 496 146.855 496.834 148.513 498.503C150.171 500.172 151 502.269 151 504.794C151 507.275 150.171 509.349 148.513 511.018C146.855 512.642 144.505 513.453 141.465 513.453C138.425 513.453 136.076 512.642 134.418 511.018C132.806 509.349 132 507.275 132 504.794Z" fill="#498AE2"/>
<path d="M121.893 296.061L115.401 293.352L127.251 264.954L133.743 267.663L121.893 296.061ZM129.928 257.412C130.337 256.432 130.988 255.749 131.881 255.361C132.793 254.981 133.836 255.037 135.012 255.527C136.187 256.018 136.961 256.721 137.332 257.636C137.703 258.551 137.684 259.498 137.275 260.478C136.873 261.44 136.217 262.111 135.306 262.491C134.402 262.853 133.362 262.789 132.186 262.299C131.011 261.808 130.234 261.114 129.855 260.217C129.502 259.309 129.526 258.374 129.928 257.412Z" fill="#A4C5F1"/>
<path d="M364.428 553.09L360.489 559.272L359.562 558.681C355.318 556.064 351.226 555.071 347.288 555.704C343.349 556.336 339.836 558.552 336.75 562.35C340.768 561.365 344.653 562.067 348.405 564.458C352.383 566.992 354.628 570.383 355.14 574.629C355.672 578.888 354.534 583.222 351.725 587.63C348.825 592.182 345.124 595.012 340.621 596.121C336.152 597.222 331.732 596.381 327.362 593.597C322.868 590.734 320.271 586.759 319.571 581.672C318.891 576.598 320.256 571.386 323.665 566.034L325.292 563.482C330.295 555.629 336.13 550.7 342.799 548.693C349.488 546.7 356.44 548.001 363.655 552.598L364.428 553.09ZM342.74 569.323C341.091 568.273 339.282 567.769 337.313 567.811C335.365 567.867 333.581 568.461 331.963 569.591L330.513 571.867C328.397 575.188 327.412 578.28 327.56 581.141C327.721 583.982 328.914 586.111 331.141 587.53C333.367 588.948 335.658 589.241 338.015 588.407C340.372 587.574 342.412 585.804 344.136 583.098C345.861 580.391 346.605 577.767 346.37 575.225C346.135 572.682 344.925 570.715 342.74 569.323Z" fill="#A4C5F1"/>
<path d="M316.227 404.962L312.289 411.144L311.361 410.553C307.117 407.935 303.026 406.943 299.087 407.575C295.148 408.208 291.636 410.423 288.549 414.222C292.568 413.237 296.453 413.939 300.204 416.329C304.183 418.864 306.428 422.254 306.939 426.5C307.471 430.76 306.333 435.093 303.525 439.501C300.625 444.053 296.923 446.883 292.421 447.992C287.951 449.094 283.532 448.253 279.162 445.469C274.668 442.606 272.071 438.631 271.371 433.544C270.691 428.47 272.056 423.257 275.465 417.906L277.091 415.353C282.094 407.501 287.93 402.571 294.599 400.565C301.288 398.571 308.24 399.873 315.454 404.47L316.227 404.962ZM294.54 421.195C292.891 420.144 291.082 419.64 289.113 419.683C287.164 419.739 285.381 420.332 283.762 421.463L282.312 423.739C280.196 427.06 279.212 430.151 279.36 433.013C279.52 435.854 280.714 437.983 282.94 439.401C285.166 440.82 287.458 441.112 289.815 440.279C292.171 439.445 294.212 437.676 295.936 434.969C297.66 432.263 298.405 429.639 298.17 427.096C297.935 424.554 296.725 422.587 294.54 421.195Z" fill="#A4C5F1"/>
<path d="M391.406 528.987C391.793 531.932 391.286 534.948 389.882 538.034C388.479 541.121 386.342 544.072 383.47 546.887C380.518 549.782 377.235 551.661 373.621 552.525C370.006 553.389 366.336 553.162 362.608 551.845C358.88 550.496 355.33 548.149 351.957 544.806L349.198 541.991C343.872 536.559 340.991 531.071 340.554 525.526C340.101 519.965 342.158 514.947 346.723 510.471C350.643 506.628 354.725 504.563 358.969 504.276C363.212 503.99 367.392 505.477 371.507 508.739L365.506 514.623C360.584 510.958 356.001 511.205 351.758 515.365C349.016 518.054 347.919 521.114 348.468 524.547C349.018 527.947 351.18 531.621 354.957 535.57L357.668 538.335C361.477 542.22 365.237 544.458 368.948 545.048C372.659 545.606 375.943 544.486 378.798 541.686C381.928 538.618 383.444 535.711 383.347 532.965L376.447 525.928L369.188 533.046L364.54 528.305L377.898 515.209L391.406 528.987Z" fill="#498AE2"/>
<path d="M312.922 433.748L300.25 460.281C299.06 462.774 297.529 464.376 295.659 465.087C293.797 465.82 291.672 465.617 289.284 464.476C288.278 463.996 287.371 463.406 286.562 462.706L288.627 458.381C289.133 458.789 289.746 459.165 290.467 459.509C292.284 460.377 293.688 459.83 294.68 457.87L307.449 431.134L312.922 433.748ZM309.999 424.579C310.401 423.738 310.997 423.165 311.788 422.861C312.594 422.563 313.492 422.651 314.483 423.125C315.474 423.598 316.107 424.241 316.383 425.055C316.658 425.869 316.595 426.696 316.193 427.537C315.799 428.363 315.198 428.925 314.392 429.222C313.594 429.505 312.699 429.409 311.708 428.936C310.717 428.462 310.08 427.826 309.798 427.028C309.537 426.221 309.604 425.405 309.999 424.579Z" fill="#498AE2"/>
<path d="M386.193 512.619L389.21 496.964L406.04 498.368L405.663 502.887L393.181 501.846L391.695 509.264C393.214 508.553 394.884 508.273 396.706 508.425C399.691 508.674 401.928 509.821 403.419 511.867C404.924 513.914 405.542 516.551 405.273 519.78C405.007 522.965 403.877 525.428 401.883 527.168C399.89 528.895 397.293 529.625 394.094 529.358C391.224 529.118 388.91 528.109 387.152 526.33C385.408 524.538 384.569 522.301 384.634 519.619L389.691 520.041C389.765 521.578 390.213 522.793 391.035 523.685C391.857 524.563 392.986 525.061 394.42 525.181C396.027 525.315 397.323 524.845 398.309 523.771C399.308 522.699 399.891 521.173 400.056 519.193C400.215 517.285 399.846 515.737 398.948 514.55C398.051 513.348 396.735 512.675 394.999 512.53C394.052 512.451 393.238 512.513 392.556 512.716C391.876 512.905 391.118 513.333 390.282 514L386.193 512.619Z" fill="#A4C5F1"/>
<path d="M155.989 480.241L169.655 465.126L187.123 477.806L183.718 482.497L170.762 473.092L164.226 480.217C166.357 480.445 168.368 481.246 170.259 482.618C173.357 484.867 175.043 487.603 175.318 490.827C175.607 494.061 174.536 497.354 172.104 500.704C169.704 504.01 166.838 505.954 163.505 506.536C160.183 507.103 156.861 506.181 153.541 503.771C150.562 501.609 148.701 498.973 147.957 495.864C147.238 492.75 147.803 489.749 149.649 486.86L154.899 490.67C153.961 492.4 153.646 494.025 153.953 495.544C154.271 497.048 155.175 498.34 156.664 499.421C158.332 500.632 160.06 500.977 161.848 500.456C163.651 499.945 165.298 498.663 166.79 496.608C168.227 494.627 168.848 492.691 168.653 490.798C168.469 488.891 167.476 487.283 165.674 485.975C164.691 485.262 163.76 484.79 162.88 484.561C162.012 484.317 160.9 484.283 159.544 484.459L155.989 480.241Z" fill="#A4C5F1"/>
<path d="M251.624 582.392L267.888 556.277L275.869 561.247L253.38 597.358L195.856 561.535L202.081 551.539L251.624 582.392Z" fill="#498AE2"/>
<path d="M347.769 322.969L364.032 296.853L372.013 301.823L349.525 337.934L292 302.111L298.225 292.115L347.769 322.969Z" fill="#498AE2"/>
<path d="M185.5 558.843L199.34 535H212.548L192.646 567.728L213 601H199.657L185.5 576.794L171.298 601H158L178.399 567.728L158.452 535H171.66L185.5 558.843Z" fill="#A4C5F1"/>
<path d="M126.706 494.565L146.63 484.427L150.045 491.138L119.674 506.591L116.876 501.091L123.07 466.281L104.426 475.768L100.976 468.989L130.274 454.081L132.985 459.408L126.706 494.565Z" fill="#A4C5F1"/>
<path d="M368.586 465.406L370.199 469.253C371.744 465.253 374.794 462.458 379.347 460.869C384.338 459.127 388.425 459.86 391.609 463.068C392.979 458.271 396.125 455.013 401.046 453.295C405.163 451.858 408.622 451.939 411.425 453.536C414.25 455.126 416.467 458.152 418.076 462.612L426.71 487.35L418.327 490.275L409.778 465.782C408.944 463.393 407.815 461.822 406.392 461.07C404.968 460.318 403.06 460.359 400.669 461.194C398.76 461.86 397.378 462.928 396.523 464.397C395.684 465.835 395.314 467.473 395.414 469.312L404.459 495.116L396.076 498.042L387.43 473.27C385.768 468.88 382.753 467.447 378.383 468.972C375.026 470.144 373.127 472.355 372.688 475.605L382.208 502.882L373.826 505.808L360.686 468.163L368.586 465.406Z" fill="#498AE2"/>
<path d="M41.2662 553.544L79.7061 518.171L73.2354 511.139L80.9064 504.08L87.3771 511.112L91.5961 507.23C96.7101 502.524 101.966 500.31 107.365 500.589C112.764 500.868 117.816 503.565 122.522 508.679C124.195 510.497 125.717 512.664 127.088 515.18L118.756 522.376C117.938 521.03 116.835 519.604 115.45 518.099C110.901 513.155 106.083 513.023 100.998 517.703L96.9067 521.468L105.534 530.843L97.8633 537.902L89.2357 528.527L50.7957 563.9L41.2662 553.544Z" fill="#A4C5F1"/>
<path d="M402.963 512.5L401.458 509.043L418.16 501.774L414.197 497.432L417.126 496.157L423.644 502.972L423.837 503.415L402.963 512.5Z" fill="#A4C5F1"/>
<path d="M94.0025 480.799L91.0736 483.173L79.6018 469.025L76.4782 474.005L74.4665 471.524L79.2901 463.42L79.6653 463.116L94.0025 480.799Z" fill="#498AE2"/>
<path d="M378.611 461.82L374.889 458.813L377.619 435.902L365.341 451.1L361.619 448.093L378.924 426.671L382.646 429.678L379.899 452.673L392.224 437.416L395.917 440.399L378.611 461.82Z" fill="#A4C5F1"/>
<path d="M243.726 552.987L227.003 567.091L224.597 564.238L225.26 548.215C225.332 545.874 225.244 544.049 224.996 542.738C224.75 541.406 224.248 540.29 223.489 539.391C222.49 538.206 221.347 537.533 220.061 537.371C218.786 537.199 217.584 537.589 216.457 538.54C215.113 539.673 214.417 540.962 214.368 542.406C214.32 543.85 214.896 545.284 216.096 546.707L211.945 550.208C210.668 548.693 209.862 547.044 209.527 545.261C209.194 543.457 209.382 541.681 210.091 539.933C210.811 538.176 212.008 536.592 213.682 535.18C216.096 533.144 218.512 532.149 220.928 532.196C223.347 532.222 225.459 533.305 227.265 535.446C228.312 536.687 229.059 538.289 229.505 540.251C229.953 542.191 230.11 544.7 229.976 547.775L229.384 559.412L240.931 549.673L243.726 552.987Z" fill="#498AE2"/>
<path d="M387.888 419.982L361.134 442.547L357.285 437.983L358.347 412.348C358.462 408.603 358.321 405.682 357.924 403.585C357.53 401.454 356.726 399.669 355.512 398.23C353.914 396.336 352.086 395.258 350.028 394.999C347.988 394.724 346.066 395.347 344.262 396.869C342.112 398.682 340.999 400.744 340.921 403.054C340.843 405.365 341.764 407.658 343.685 409.936L337.044 415.536C335.001 413.113 333.711 410.475 333.175 407.622C332.643 404.736 332.943 401.894 334.077 399.099C335.229 396.287 337.144 393.752 339.822 391.494C343.685 388.236 347.549 386.645 351.416 386.72C355.286 386.761 358.665 388.494 361.553 391.919C363.228 393.905 364.423 396.467 365.137 399.606C365.854 402.711 366.105 406.724 365.89 411.644L364.943 430.261L383.417 414.681L387.888 419.982Z" fill="#498AE2"/>
<path d="M246.467 373.293L249.641 375.498C251.252 376.596 252.805 377.06 254.3 376.891C255.81 376.732 257.101 375.88 258.174 374.336C259.207 372.85 259.613 371.426 259.393 370.065C259.197 368.699 258.299 367.46 256.698 366.348C255.297 365.374 253.863 364.982 252.396 365.171C250.939 365.346 249.759 366.084 248.855 367.385L243.645 363.764C244.757 362.163 246.192 360.998 247.949 360.269C249.721 359.55 251.617 359.352 253.639 359.676C255.685 359.995 257.652 360.811 259.539 362.122C262.655 364.287 264.553 366.772 265.233 369.576C265.938 372.376 265.321 375.169 263.384 377.957C262.411 379.358 261.042 380.367 259.277 380.985C257.537 381.599 255.74 381.728 253.888 381.374C255.196 383.152 255.856 384.978 255.869 386.852C255.895 388.736 255.302 390.549 254.091 392.293C252.144 395.095 249.629 396.655 246.547 396.972C243.48 397.299 240.38 396.375 237.25 394.2C234.248 392.114 232.345 389.605 231.542 386.673C230.739 383.741 231.261 380.946 233.109 378.287L238.319 381.907C237.366 383.28 237.048 384.713 237.367 386.206C237.701 387.709 238.646 389.002 240.204 390.085C241.82 391.207 243.39 391.663 244.915 391.45C246.44 391.238 247.769 390.318 248.901 388.688C250.044 387.044 250.437 385.441 250.08 383.879C249.724 382.318 248.588 380.871 246.673 379.54L243.606 377.41L246.467 373.293Z" fill="#A4C5F1"/>
<path d="M201.749 523.932C203.087 527.961 202.438 532.105 199.801 536.367C197.446 540.174 194.527 542.361 191.045 542.929C187.576 543.474 183.698 542.421 179.411 539.769L156.294 525.467L161.173 517.582L184.19 531.823C188.719 534.625 192.128 534.177 194.416 530.478C196.785 526.649 196.988 523.2 195.026 520.132L169.403 504.279L174.281 496.395L209.962 518.47L205.365 525.9L201.749 523.932Z" fill="#A4C5F1"/>
<path d="M168.489 564.849L170.525 561.826L173.782 564.019L171.746 567.042L177.157 570.686L174.424 574.745L169.013 571.101L161.939 581.606L159.388 580.059L150.016 558.503L152.839 554.31L168.489 564.849ZM161.471 575.271L165.756 568.907L155.601 562.069L155.933 562.73L161.471 575.271Z" fill="#A4C5F1"/>
<path d="M412.214 389.972L415.831 390.422L415.346 394.318L411.729 393.869L410.925 400.343L406.069 399.74L406.874 393.265L394.305 391.703L394.533 388.728L409.525 370.626L414.541 371.249L412.214 389.972ZM399.745 388.423L407.358 389.369L408.868 377.22L408.429 377.814L399.745 388.423Z" fill="#A4C5F1"/>
<path d="M41.2425 436.617L44.3866 438.46L42.4007 441.848L39.2566 440.004L35.9569 445.632L31.7358 443.157L35.0355 437.529L24.1094 431.124L25.4951 428.481L46.4251 417.784L50.7851 420.341L41.2425 436.617ZM30.4032 430.262L37.0215 434.142L43.2135 423.581L42.5749 423.953L30.4032 430.262Z" fill="#A4C5F1"/>
<path d="M282.372 572.613L301.431 592.464L296.277 597.412L269.722 569.754L273.906 565.736L320.114 558.295L301.789 539.21L306.995 534.212L332.84 561.131L328.757 565.051L282.372 572.613Z" fill="#A4C5F1"/>
<path d="M278.69 464.215C277.726 462.392 276.334 461.331 274.512 461.031C272.71 460.72 269.862 460.951 265.968 461.723C262.073 462.495 258.806 462.789 256.167 462.606C251.11 462.243 247.572 460.153 245.553 456.337C243.786 452.995 243.696 449.519 245.283 445.91C246.889 442.29 249.879 439.324 254.254 437.01C257.157 435.474 260.027 434.637 262.863 434.498C265.698 434.359 268.288 434.933 270.631 436.221C272.965 437.489 274.764 439.32 276.03 441.712L268.809 445.531C267.664 443.367 266.082 442.041 264.064 441.553C262.055 441.036 259.78 441.45 257.239 442.793C254.87 444.046 253.293 445.524 252.507 447.228C251.74 448.921 251.834 450.67 252.788 452.474C253.592 453.993 254.971 454.891 256.927 455.169C258.873 455.427 261.726 455.182 265.486 454.433C269.235 453.665 272.42 453.377 275.041 453.571C277.651 453.745 279.837 454.387 281.597 455.497C283.348 456.588 284.785 458.197 285.91 460.324C287.738 463.78 287.857 467.24 286.267 470.705C284.686 474.141 281.613 477.067 277.047 479.482C274.029 481.078 270.958 481.997 267.835 482.24C264.721 482.453 261.939 481.956 259.491 480.748C257.063 479.53 255.16 477.62 253.784 475.019L261.034 471.184C262.279 473.539 264.027 474.947 266.276 475.41C268.525 475.873 271.111 475.331 274.034 473.785C276.556 472.452 278.181 470.948 278.91 469.275C279.647 467.573 279.574 465.886 278.69 464.215Z" fill="#A4C5F1"/>
<path d="M330.937 535.122C327.937 537.486 324.882 539.03 321.772 539.755C318.676 540.469 315.736 540.314 312.952 539.289C310.194 538.268 307.8 536.47 305.772 533.895C303.765 531.349 302.578 528.601 302.208 525.652C301.863 522.706 302.382 519.802 303.764 516.942C305.157 514.096 307.313 511.511 310.232 509.188L311.956 507.83C314.942 505.477 318.003 503.94 321.138 503.218C324.285 502.511 327.237 502.668 329.995 503.689C332.779 504.713 335.18 506.506 337.197 509.066C339.215 511.627 340.397 514.368 340.744 517.288C341.116 520.212 340.599 523.103 339.192 525.96C337.799 528.807 335.615 531.413 332.64 533.78L330.937 535.122ZM328.234 528.404C331.626 525.731 333.706 523.02 334.471 520.272C335.249 517.538 334.685 514.963 332.781 512.546C330.922 510.187 328.562 509.05 325.699 509.137C322.862 509.228 319.785 510.556 316.467 513.123L314.701 514.515C311.336 517.166 309.263 519.884 308.48 522.669C307.709 525.468 308.264 528.061 310.146 530.449C312.05 532.866 314.409 534.015 317.224 533.896C320.049 533.791 323.187 532.38 326.635 529.663L328.234 528.404Z" fill="#498AE2"/>
<path d="M45.3316 521.329L61.1674 534.396L55.0778 541.776L12.4587 506.61L25.8654 490.362C29.7806 485.617 34.1247 482.876 38.8977 482.14C43.6866 481.385 48.1203 482.69 52.1988 486.055C56.3749 489.501 58.4927 493.553 58.5524 498.211C58.6281 502.849 56.6361 507.629 52.5764 512.549L45.3316 521.329ZM39.3895 516.426L46.7066 507.558C48.8728 504.933 49.9109 502.423 49.8207 500.028C49.7111 497.616 48.4855 495.445 46.1437 493.512C43.8411 491.612 41.4291 490.799 38.9077 491.072C36.3669 491.329 34.0661 492.667 32.0052 495.085L24.5196 504.157L39.3895 516.426Z" fill="#498AE2"/>
<path d="M74.0729 471.394L60.0885 474.825L62.5803 484.981L53.0092 487.329L50.5174 477.173L18.4012 485.053C16.2034 485.592 14.7126 486.409 13.9288 487.503C13.1891 488.624 13.0933 490.301 13.6412 492.535C14.0065 494.024 14.5533 495.487 15.2818 496.924L5.28538 499.377C3.74819 496.634 2.64475 493.898 1.97506 491.169C-0.460167 481.243 3.79899 474.937 14.7525 472.249L47.3473 464.252L45.0251 454.788L54.5962 452.439L56.9184 461.904L70.9027 458.473L74.0729 471.394Z" fill="#A4C5F1"/>
<path d="M91.4994 496.944L92.2794 464.796L99.4043 462.682L97.0996 504.165L90.8204 506.028L66.3169 472.498L73.4162 470.392L91.4994 496.944Z" fill="#A4C5F1"/>
<path d="M230.53 445.025L223.1 440.916L214.963 455.63L208.296 451.944L229.415 413.753L242.906 421.214C247.333 423.662 250.203 426.539 251.517 429.846C252.831 433.153 252.453 436.677 250.384 440.419C248.972 442.973 247.164 444.77 244.96 445.811C242.782 446.845 240.331 447.213 237.605 446.916L237.417 467.602L237.228 467.943L230.087 463.994L230.53 445.025ZM226.044 435.591L232.895 439.379C235.144 440.623 237.21 441.035 239.093 440.615C240.987 440.178 242.475 438.98 243.558 437.021C244.689 434.976 244.976 433.068 244.418 431.298C243.877 429.537 242.457 427.999 240.158 426.681L233.123 422.791L226.044 435.591Z" fill="#498AE2"/>
<path d="M76.9367 341.358C79.9097 346.219 81.7081 350.91 82.3319 355.433C82.9651 359.917 82.5269 364.057 81.0175 367.852L94.0775 369.301L91.4544 378.068L75.191 376.159C73.9366 377.346 72.4826 378.445 70.8289 379.456C66.671 382 62.3326 383.266 57.8137 383.256C53.3041 383.207 49.0025 381.854 44.9092 379.195C40.8394 376.522 37.2918 372.739 34.2665 367.846L32.5 364.959C29.4408 359.957 27.6266 355.001 27.0574 350.09C26.5118 345.165 27.2397 340.703 29.2411 336.704C31.2517 332.667 34.3478 329.369 38.5292 326.812C42.7816 324.211 47.1436 322.93 51.6153 322.969C56.0962 322.971 60.3787 324.32 64.4629 327.016C68.5326 329.689 72.1089 333.519 75.1917 338.506L76.9367 341.358ZM66.2986 344.187C62.7655 338.411 59.0002 334.697 55.0028 333.045C51.0053 331.392 47.0222 331.78 43.0533 334.208C39.2026 336.563 37.105 339.927 36.7607 344.3C36.4257 348.635 37.9149 353.564 41.2284 359.087L43.0596 362.081C46.449 367.622 50.1856 371.289 54.2692 373.082C58.3764 374.861 62.4026 374.544 66.3479 372.131C70.3404 369.689 72.4805 366.315 72.7683 362.009C73.0798 357.688 71.469 352.64 67.9359 346.864L66.2986 344.187Z" fill="#498AE2"/>
<path d="M258.477 254C260.559 254 262.167 254.584 263.3 255.753C264.433 256.891 265 258.33 265 260.067C265 261.775 264.433 263.199 263.3 264.337C262.167 265.446 260.559 266 258.477 266C256.486 266 254.909 265.446 253.746 264.337C252.582 263.228 252 261.805 252 260.067C252 258.33 252.567 256.891 253.7 255.753C254.833 254.584 256.425 254 258.477 254Z" fill="#498AE2"/>
<path d="M456.679 299.122L450.602 305.455L422.898 278.874L428.975 272.54L456.679 299.122ZM415.329 272.361C414.373 271.444 413.871 270.378 413.823 269.164C413.791 267.933 414.326 266.744 415.426 265.597C416.526 264.45 417.693 263.867 418.924 263.847C420.156 263.828 421.25 264.277 422.206 265.194C423.145 266.094 423.63 267.161 423.661 268.392C423.675 269.607 423.132 270.788 422.032 271.935C420.932 273.082 419.774 273.673 418.559 273.709C417.344 273.711 416.267 273.262 415.329 272.361Z" fill="#A4C5F1"/>
</g>
<defs>
<clipPath id="clip0">
<rect width="504" height="606" fill="white" transform="translate(0 -4)"/>
</clipPath>
</defs>
</svg>
