<svg width="1032" height="239" viewBox="0 0 1032 239" fill="none" xmlns="http://www.w3.org/2000/svg">
<g clip-path="url(#clip0)">
<path d="M556.983 168.788L540.372 153.094L509.709 187.111L494.806 173.031L574.388 84.7434L604.547 113.238C614.442 122.588 620.021 132.088 621.284 141.739C622.546 151.39 619.278 160.541 611.48 169.192C606.16 175.094 600.303 178.729 593.907 180.097C587.587 181.461 580.988 180.877 574.109 178.345L560.193 233.35L559.482 234.138L543.519 219.056L556.983 168.788ZM551.468 140.785L566.782 155.254C571.809 160.004 576.902 162.42 582.061 162.504C587.257 162.548 591.895 160.306 595.977 155.779C600.24 151.049 602.222 146.148 601.923 141.075C601.663 136.039 598.978 131.031 593.868 126.053L578.141 111.194L551.468 140.785Z" fill="#A4C5F1"/>
<path d="M502.886 211.607L497.316 185.318L504.495 181.912L511.174 220.65L505.116 223.524L487.366 203.168L491.182 230.135L485.124 233.009L460.542 202.764L467.721 199.358L483.688 220.406L479.747 193.653L485.29 191.023L502.886 211.607Z" fill="#A4C5F1"/>
<path d="M1097.61 146.768L1133.87 106.097L1147.93 114.331L1092.68 171.647L1080.82 164.699L1092.97 110.243L1053.53 148.718L1041.66 141.769L1061.85 63.9208L1075.91 72.1546L1060.51 124.381L1099.46 85.9471L1110.32 92.3049L1097.61 146.768Z" fill="#A4C5F1"/>
<path d="M659.273 203.283L631.892 213.935L632.417 233.013L619.649 237.98L619.491 155.225L630.512 150.938L684.12 212.899L671.303 217.885L659.273 203.283ZM631.576 202.455L652.063 194.485L630.677 168.449L631.576 202.455Z" fill="#A4C5F1"/>
<path d="M80.1732 220.032L70.3825 227.367L72.6408 234.927L68.0752 238.348L59.1258 205.317L63.0664 202.365L91.1285 221.075L86.5457 224.509L80.1732 220.032ZM69.0234 222.818L76.3491 217.329L65.013 209.339L69.0234 222.818Z" fill="#A4C5F1"/>
<path d="M774.595 77.8337L764.804 85.1694L767.063 92.7291L762.497 96.1498L753.548 63.1191L757.488 60.1666L785.55 78.8771L780.968 82.3108L774.595 77.8337ZM763.445 80.6203L770.771 75.1315L759.435 67.1411L763.445 80.6203Z" fill="#A4C5F1"/>
<path d="M840.277 187.556L824.842 150.364L835.106 141.638L859.066 206.679C862.44 216.286 860.996 223.752 854.734 229.075C853.334 230.265 851.591 231.335 849.506 232.286L843.319 224.658L845.241 223.23C847.671 221.164 849.121 219.154 849.591 217.202C850.109 215.253 849.858 212.908 848.838 210.164L847.165 205.212L796.666 174.317L807.048 165.491L840.277 187.556Z" fill="#A4C5F1"/>
<path d="M38.8509 208.078L68.4652 181.363L79.7876 188.587L27.0442 232.36C19.2006 238.665 11.8253 239.614 4.9182 235.207C3.37357 234.221 1.83212 232.865 0.293837 231.138L5.41565 222.724L7.34484 224.141C10.0261 225.852 12.3458 226.627 14.3039 226.468C16.273 226.358 18.3684 225.375 20.5902 223.52L24.6539 220.333L37.3833 161.531L48.8368 168.839L38.8509 208.078Z" fill="#A4C5F1"/>
<path d="M368.114 178.198C371.064 179.266 373.81 179.284 376.354 178.253C378.898 177.221 380.676 175.452 381.688 172.945L392.822 176.975C391.55 180.235 389.461 182.96 386.554 185.149C383.658 187.305 380.284 188.625 376.434 189.11C372.584 189.595 368.762 189.151 364.97 187.778C357.612 185.115 352.608 180.597 349.959 174.224C347.31 167.851 347.45 160.424 350.378 151.944L350.802 150.716C353.594 142.629 357.967 136.937 363.918 133.64C369.882 130.311 376.558 129.983 383.949 132.658C390.205 134.923 394.655 138.614 397.299 143.734C399.987 148.832 400.394 154.412 398.52 160.474L387.386 156.444C388.308 153.352 388.135 150.472 386.869 147.804C385.635 145.147 383.527 143.279 380.545 142.2C376.72 140.815 373.284 141.156 370.237 143.22C367.202 145.252 364.684 149.111 362.685 154.796L362.023 156.712C360.033 162.474 359.568 167.149 360.626 170.736C361.728 174.303 364.224 176.79 368.114 178.198Z" fill="#A4C5F1"/>
<path d="M862.721 202.625C864.858 197.89 867.66 194.607 871.127 192.776C874.602 190.926 878.168 190.866 881.825 192.596C885.051 194.122 887.145 196.492 888.108 199.705L895.211 183.965L902.048 187.199L882.352 230.84L876.163 227.912L877.262 224.57C874.089 226.103 870.796 226.062 867.382 224.448C863.818 222.762 861.584 219.947 860.679 216.002C859.792 212.065 860.473 207.607 862.721 202.625ZM869.288 206.456C867.878 209.581 867.366 212.304 867.753 214.624C868.167 216.935 869.471 218.609 871.665 219.647C874.46 220.969 877.073 220.677 879.504 218.77L885.428 205.643C885.282 202.586 883.812 200.397 881.018 199.075C878.805 198.028 876.696 198.111 874.692 199.324C872.697 200.517 870.896 202.895 869.288 206.456Z" fill="#498AE2"/>
<path d="M107.808 209.574C109.945 204.839 112.747 201.556 116.213 199.725C119.688 197.875 123.254 197.815 126.911 199.545C130.137 201.071 132.232 203.441 133.194 206.654L140.298 190.914L147.134 194.148L127.439 237.789L121.249 234.861L122.348 231.519C119.175 233.052 115.882 233.011 112.469 231.397C108.905 229.711 106.67 226.896 105.765 222.951C104.879 219.015 105.559 214.556 107.808 209.574ZM114.375 213.405C112.964 216.53 112.452 219.253 112.839 221.574C113.253 223.884 114.557 225.558 116.752 226.596C119.546 227.918 122.159 227.626 124.59 225.719L130.514 212.592C130.369 209.536 128.899 207.346 126.104 206.024C123.891 204.977 121.782 205.06 119.779 206.273C117.783 207.466 115.982 209.844 114.375 213.405Z" fill="#498AE2"/>
<path d="M913.845 38.9534C917.433 35.2503 921.162 33.1445 925.031 32.636C928.914 32.1127 932.286 33.3036 935.146 36.2088C937.669 38.7712 938.846 41.7308 938.678 45.0875L950.607 32.7784L955.953 38.2088L922.881 72.3365L918.041 67.4201L920.189 64.6634C916.695 64.9948 913.614 63.8047 910.944 61.0933C908.158 58.2626 906.997 54.8352 907.462 50.8109C907.942 46.8016 910.07 42.849 913.845 38.9534ZM918.739 44.8503C916.371 47.2944 914.981 49.6745 914.57 51.9906C914.188 54.3068 914.855 56.3365 916.571 58.0795C918.757 60.2993 921.31 60.9382 924.231 59.9961L934.178 49.7312C935.062 46.8074 934.411 44.2356 932.225 42.0158C930.495 40.2578 928.485 39.5983 926.197 40.0371C923.924 40.4612 921.438 42.0656 918.739 44.8503Z" fill="#498AE2"/>
<path d="M942.021 193.501C940.163 199.111 936.827 203.035 932.013 205.272C926.343 207.907 920.918 207.962 915.739 205.438C910.546 202.884 906.468 198.266 903.506 191.584C901.559 187.191 900.65 182.811 900.78 178.446C900.911 174.08 902.116 170.172 904.397 166.72C906.678 163.268 909.901 160.575 914.065 158.64C920.562 155.621 926.825 155.728 932.853 158.961C938.881 162.194 943.755 168.006 947.474 176.396L948.854 179.508C954.183 191.529 955.619 201.919 953.162 210.677C950.705 219.436 944.284 226.283 933.899 231.219L932.615 231.816L928.537 222.617L930.087 221.896C936.396 218.854 940.573 215.019 942.616 210.39C944.647 205.73 944.448 200.1 942.021 193.501ZM930.418 195.526C932.574 194.525 934.313 192.944 935.635 190.784C936.957 188.624 937.634 186.176 937.667 183.437L935.739 179.09C933.562 174.178 930.836 170.68 927.561 168.595C924.286 166.511 921.098 166.19 917.997 167.631C914.896 169.072 913.004 171.551 912.32 175.07C911.652 178.545 912.211 182.296 913.996 186.323C915.849 190.503 918.274 193.442 921.271 195.141C924.268 196.839 927.317 196.967 930.418 195.526Z" fill="#A4C5F1"/>
<path d="M185.473 195.333C183.615 200.943 180.279 204.866 175.465 207.103C169.794 209.738 164.369 209.794 159.19 207.27C153.997 204.716 149.92 200.098 146.958 193.416C145.01 189.022 144.102 184.643 144.232 180.277C144.362 175.912 145.568 172.003 147.849 168.552C150.13 165.1 153.353 162.407 157.517 160.472C164.014 157.452 170.277 157.559 176.305 160.793C182.333 164.026 187.207 169.838 190.926 178.228L192.306 181.34C197.635 193.361 199.071 203.75 196.614 212.509C194.157 221.267 187.736 228.114 177.351 233.05L176.066 233.647L171.988 224.449L173.539 223.728C179.848 220.686 184.024 216.85 186.068 212.221C188.098 207.561 187.9 201.932 185.473 195.333ZM173.869 197.358C176.025 196.356 177.764 194.775 179.086 192.616C180.408 190.456 181.086 188.007 181.118 185.269L179.191 180.921C177.013 176.009 174.287 172.511 171.013 170.427C167.738 168.343 164.55 168.021 161.449 169.462C158.348 170.903 156.456 173.383 155.772 176.902C155.104 180.377 155.663 184.128 157.448 188.155C159.301 192.335 161.726 195.274 164.723 196.972C167.719 198.67 170.768 198.799 173.869 197.358Z" fill="#A4C5F1"/>
<path d="M762.726 135.058C764.509 138.183 765.312 141.445 765.133 144.843C764.938 148.211 763.877 151.412 761.95 154.445C766.105 154.036 769.825 154.652 773.109 156.293C776.422 157.916 779.045 160.422 780.979 163.81C784.179 169.419 784.855 174.989 783.007 180.522C781.142 186.025 777.11 190.63 770.911 194.338C764.682 198.063 758.746 199.399 753.103 198.347C747.488 197.278 743.089 193.954 739.906 188.374C737.956 184.956 737.095 181.357 737.325 177.576C737.554 173.795 738.86 170.213 741.241 166.83C737.743 167.042 734.513 166.407 731.551 164.927C728.601 163.4 726.234 161.074 724.451 157.948C721.351 152.515 720.615 147.176 722.242 141.932C723.87 136.688 727.611 132.315 733.467 128.814C739.351 125.295 744.923 124.097 750.184 125.221C755.445 126.345 759.626 129.624 762.726 135.058ZM770.217 169.541C768.417 166.386 766.034 164.403 763.068 163.591C760.115 162.732 757.117 163.213 754.074 165.032C751.032 166.852 749.142 169.275 748.405 172.301C747.697 175.311 748.251 178.407 750.068 181.591C751.851 184.717 754.166 186.683 757.012 187.488C759.887 188.276 762.903 187.726 766.06 185.838C769.218 183.949 771.155 181.576 771.873 178.718C772.619 175.843 772.067 172.784 770.217 169.541ZM752.532 141.683C750.948 138.908 748.859 137.101 746.264 136.264C743.652 135.397 741.011 135.761 738.342 137.358C735.673 138.954 734.055 141.078 733.488 143.728C732.905 146.349 733.455 149.135 735.138 152.085C736.805 155.007 738.905 156.865 741.438 157.662C744 158.441 746.616 158.033 749.285 156.436C751.954 154.84 753.572 152.717 754.139 150.066C754.734 147.399 754.199 144.604 752.532 141.683Z" fill="#A4C5F1"/>
<path d="M974.129 231.71H954.149V142.529H974.129V231.71ZM952.916 119.369C952.916 116.291 953.875 113.736 955.793 111.703C957.767 109.67 960.562 108.654 964.18 108.654C967.798 108.654 970.593 109.67 972.566 111.703C974.54 113.736 975.526 116.291 975.526 119.369C975.526 122.391 974.54 124.918 972.566 126.951C970.593 128.93 967.798 129.919 964.18 129.919C960.562 129.919 957.767 128.93 955.793 126.951C953.875 124.918 952.916 122.391 952.916 119.369Z" fill="#498AE2"/>
<path d="M212.887 234H196.982V162.978H212.887V234ZM196 144.533C196 142.083 196.764 140.048 198.291 138.429C199.862 136.81 202.087 136 204.967 136C207.847 136 210.073 136.81 211.644 138.429C213.215 140.048 214 142.083 214 144.533C214 146.94 213.215 148.953 211.644 150.572C210.073 152.147 207.847 152.935 204.967 152.935C202.087 152.935 199.862 152.147 198.291 150.572C196.764 148.953 196 146.94 196 144.533Z" fill="#498AE2"/>
<path d="M109.635 233.543L96.3741 238.352L75.8985 179.16L89.1595 174.352L109.635 233.543ZM69.7623 164.085C69.0559 162.042 69.1059 160.116 69.9125 158.305C70.7554 156.48 72.3775 155.133 74.7786 154.262C77.1798 153.392 79.2687 153.393 81.0452 154.268C82.8217 155.142 84.0632 156.601 84.7697 158.643C85.4636 160.649 85.389 162.564 84.5461 164.388C83.6905 166.176 82.0622 167.506 79.661 168.376C77.2598 169.247 75.1773 169.263 73.4134 168.425C71.6732 167.537 70.4562 166.091 69.7623 164.085Z" fill="#498AE2"/>
<path d="M734.01 108.484L729.323 116.016L728.219 115.296C723.169 112.107 718.3 110.897 713.612 111.668C708.925 112.439 704.745 115.138 701.072 119.766C705.854 118.566 710.477 119.422 714.942 122.334C719.676 125.422 722.348 129.553 722.957 134.726C723.59 139.916 722.236 145.196 718.893 150.566C715.443 156.112 711.038 159.56 705.679 160.912C700.36 162.254 695.101 161.229 689.9 157.837C684.553 154.349 681.462 149.506 680.629 143.308C679.82 137.126 681.444 130.775 685.501 124.255L687.436 121.145C693.39 111.577 700.335 105.571 708.271 103.127C716.231 100.698 724.505 102.284 733.09 107.884L734.01 108.484ZM708.201 128.262C706.238 126.982 704.086 126.368 701.743 126.42C699.424 126.488 697.302 127.211 695.375 128.588L693.65 131.361C691.131 135.408 689.96 139.175 690.136 142.661C690.327 146.122 691.748 148.716 694.397 150.445C697.046 152.173 699.773 152.529 702.578 151.514C705.382 150.498 707.811 148.342 709.862 145.044C711.914 141.747 712.8 138.55 712.521 135.452C712.241 132.355 710.801 129.958 708.201 128.262Z" fill="#A4C5F1"/>
<path d="M505.071 150.676C505.533 154.264 504.929 157.938 503.259 161.699C501.589 165.46 499.045 169.055 495.628 172.485C492.115 176.012 488.207 178.301 483.906 179.354C479.605 180.406 475.237 180.13 470.801 178.526C466.365 176.882 462.14 174.023 458.126 169.949L454.842 166.519C448.504 159.901 445.075 153.214 444.556 146.459C444.017 139.684 446.464 133.57 451.897 128.116C456.562 123.434 461.42 120.918 466.47 120.569C471.52 120.22 476.494 122.032 481.391 126.006L474.249 133.175C468.392 128.709 462.939 129.011 457.889 134.079C454.626 137.355 453.321 141.084 453.974 145.266C454.628 149.408 457.202 153.885 461.696 158.696L464.922 162.065C469.455 166.799 473.929 169.525 478.346 170.244C482.762 170.925 486.67 169.559 490.068 166.148C493.792 162.41 495.597 158.868 495.481 155.523L487.271 146.949L478.631 155.621L473.1 149.845L488.996 133.889L505.071 150.676Z" fill="#A4C5F1"/>
<path d="M498.868 130.734L502.459 111.66L522.487 113.37L522.038 118.876L507.184 117.608L505.416 126.646C507.223 125.779 509.211 125.438 511.379 125.623C514.931 125.927 517.594 127.325 519.368 129.817C521.159 132.311 521.894 135.525 521.574 139.458C521.258 143.339 519.913 146.339 517.54 148.46C515.168 150.564 512.078 151.453 508.27 151.128C504.856 150.836 502.102 149.606 500.009 147.439C497.934 145.255 496.936 142.529 497.013 139.262L503.031 139.776C503.12 141.649 503.652 143.129 504.63 144.216C505.609 145.285 506.952 145.893 508.659 146.039C510.572 146.202 512.114 145.629 513.286 144.321C514.476 143.015 515.169 141.155 515.366 138.743C515.555 136.418 515.115 134.532 514.047 133.086C512.98 131.622 511.413 130.801 509.347 130.625C508.22 130.529 507.251 130.604 506.44 130.852C505.631 131.082 504.729 131.604 503.734 132.416L498.868 130.734Z" fill="#A4C5F1"/>
<path d="M981.463 89.453L997.727 71.0379L1018.51 86.4865L1014.46 92.2017L999.044 80.7436L991.266 89.4242C993.802 89.7021 996.195 90.6773 998.446 92.3499C1002.13 95.0893 1004.14 98.4229 1004.47 102.35C1004.81 106.291 1003.54 110.303 1000.64 114.385C997.785 118.413 994.374 120.781 990.408 121.491C986.454 122.181 982.501 121.059 978.55 118.122C975.005 115.488 972.79 112.276 971.905 108.487C971.05 104.694 971.721 101.037 973.919 97.5177L980.166 102.16C979.05 104.268 978.675 106.247 979.041 108.098C979.419 109.93 980.494 111.505 982.266 112.822C984.251 114.297 986.308 114.717 988.435 114.082C990.581 113.461 992.541 111.898 994.317 109.394C996.027 106.981 996.767 104.622 996.535 102.316C996.315 99.9918 995.133 98.0331 992.989 96.4395C991.819 95.5702 990.711 94.996 989.664 94.7168C988.631 94.4194 987.307 94.3777 985.694 94.5918L981.463 89.453Z" fill="#A4C5F1"/>
<path d="M617.095 83.3964L633.358 64.9812L654.146 80.4299L650.093 86.145L634.676 74.6869L626.898 83.3675C629.434 83.6454 631.827 84.6207 634.078 86.2933C637.764 89.0327 639.77 92.3662 640.097 96.2939C640.442 100.235 639.167 104.246 636.273 108.328C633.417 112.356 630.006 114.725 626.039 115.434C622.086 116.125 618.133 115.002 614.181 112.065C610.637 109.431 608.422 106.22 607.537 102.431C606.682 98.6372 607.353 94.9806 609.551 91.4611L615.798 96.1036C614.682 98.2112 614.307 100.19 614.673 102.041C615.051 103.874 616.126 105.448 617.898 106.765C619.883 108.241 621.939 108.661 624.067 108.026C626.213 107.404 628.173 105.841 629.948 103.337C631.659 100.924 632.399 98.5649 632.166 96.2591C631.947 93.9352 630.765 91.9764 628.621 90.3828C627.451 89.5136 626.343 88.9394 625.296 88.6601C624.262 88.3627 622.939 88.3211 621.326 88.5352L617.095 83.3964Z" fill="#A4C5F1"/>
<path d="M758.106 221.915L790.371 204.2L795.659 214.295L751.044 238.791L712.93 166.027L725.28 159.246L758.106 221.915Z" fill="#498AE2"/>
<path d="M338.726 215.744L358.08 183.926L367.577 189.981L340.815 233.978L272.358 190.332L279.766 178.153L338.726 215.744Z" fill="#498AE2"/>
<path d="M1016.58 185.221L1033.05 156.17H1048.77L1025.09 196.046L1049.31 236.583H1033.43L1016.58 207.091L999.681 236.583H983.856L1008.13 196.046L984.395 156.17H1000.11L1016.58 185.221Z" fill="#A4C5F1"/>
<path d="M260.034 187.052L276.505 158.002H292.222L268.539 197.877L292.761 238.415H276.882L260.034 208.923L243.133 238.415H227.308L251.584 197.877L227.846 158.002H243.564L260.034 187.052Z" fill="#A4C5F1"/>
<path d="M946.615 106.905L970.326 94.5533L974.389 102.729L938.247 121.557L934.917 114.857L942.288 72.4449L920.101 84.0034L915.996 75.7432L950.861 57.5798L954.087 64.07L946.615 106.905Z" fill="#A4C5F1"/>
<path d="M804.52 223.307L828.23 210.955L832.293 219.131L796.152 237.96L792.821 231.259L800.193 188.847L778.005 200.406L773.9 192.145L808.766 173.982L811.991 180.472L804.52 223.307Z" fill="#A4C5F1"/>
<path d="M673.636 177.307L697.346 164.955L701.41 173.131L665.268 191.959L661.938 185.259L669.309 142.847L647.122 154.406L643.016 146.145L677.882 127.982L681.108 134.472L673.636 177.307Z" fill="#A4C5F1"/>
<path d="M477.915 73.2098L479.835 77.8972C481.674 73.0237 485.303 69.6186 490.722 67.6821C496.661 65.5598 501.525 66.453 505.314 70.3617C506.944 64.5164 510.687 60.5473 516.544 58.4543C521.443 56.7036 525.56 56.8017 528.895 58.7485C532.258 60.6856 534.896 64.3715 536.81 69.8062L547.085 99.9457L537.11 103.511L526.935 73.6679C525.943 70.757 524.6 68.8435 522.906 67.9271C521.212 67.0107 518.941 67.0611 516.095 68.0783C513.823 68.8901 512.179 70.191 511.162 71.981C510.163 73.7331 509.723 75.7291 509.842 77.9693L520.606 109.408L510.63 112.973L500.34 82.7913C498.363 77.4425 494.775 75.6972 489.575 77.5555C485.579 78.9834 483.319 81.6772 482.796 85.6367L494.127 118.871L484.151 122.436L468.514 76.5694L477.915 73.2098Z" fill="#498AE2"/>
<path d="M844.938 178.764L890.683 135.666L882.983 127.099L892.112 118.499L899.812 127.066L904.833 122.336C910.919 116.602 917.174 113.905 923.599 114.245C930.024 114.585 936.036 117.87 941.636 124.101C943.628 126.316 945.439 128.957 947.071 132.023L937.155 140.789C936.181 139.15 934.869 137.413 933.22 135.578C927.806 129.555 922.074 129.395 916.022 135.096L911.153 139.683L921.42 151.106L912.291 159.707L902.024 148.284L856.279 191.382L844.938 178.764Z" fill="#A4C5F1"/>
<path d="M654.722 238.864L651.011 236.282L663.192 217.925L656.445 216.033L658.581 212.813L669.471 215.591L669.947 215.922L654.722 238.864Z" fill="#A4C5F1"/>
<path d="M518.825 129.589L516.88 125.013L538.471 115.392L533.348 109.646L537.134 107.959L545.56 116.979L545.809 117.565L518.825 129.589Z" fill="#A4C5F1"/>
<path d="M907.697 90.1326L904.211 93.0261L890.559 75.7878L886.842 81.8552L884.448 78.8323L890.188 68.9591L890.635 68.5885L907.697 90.1326Z" fill="#498AE2"/>
<path d="M329.326 179.917L309.425 197.101L306.562 193.625L307.351 174.103C307.437 171.251 307.332 169.027 307.037 167.43C306.744 165.807 306.146 164.448 305.243 163.351C304.054 161.909 302.694 161.088 301.163 160.891C299.646 160.681 298.216 161.156 296.875 162.315C295.276 163.695 294.447 165.266 294.389 167.025C294.331 168.785 295.017 170.532 296.445 172.266L291.506 176.531C289.986 174.686 289.026 172.677 288.628 170.504C288.232 168.306 288.455 166.142 289.299 164.013C290.156 161.872 291.58 159.941 293.572 158.221C296.445 155.74 299.32 154.529 302.196 154.585C305.074 154.617 307.588 155.937 309.737 158.545C310.983 160.057 311.871 162.009 312.403 164.399C312.936 166.764 313.123 169.82 312.963 173.567L312.258 187.745L326 175.88L329.326 179.917Z" fill="#498AE2"/>
<path d="M41.7748 157.718L21.8742 174.902L19.0111 171.426L19.8006 151.904C19.8863 149.052 19.7815 146.827 19.4862 145.23C19.1931 143.608 18.5951 142.248 17.6922 141.152C16.5035 139.709 15.1436 138.889 13.6126 138.691C12.0951 138.482 10.6656 138.957 9.32395 140.115C7.72485 141.496 6.89634 143.066 6.83841 144.826C6.78048 146.585 7.46586 148.332 8.89455 150.067L3.95497 154.332C2.43484 152.487 1.47556 150.478 1.07712 148.305C0.680815 146.106 0.904382 143.943 1.74783 141.813C2.60482 139.673 4.02937 137.742 6.02146 136.022C8.89442 133.541 11.769 132.329 14.6453 132.386C17.5237 132.418 20.0373 133.737 22.186 136.346C23.4318 137.858 24.3204 139.81 24.8518 142.2C25.3852 144.565 25.572 147.621 25.412 151.368L24.7074 165.546L38.4488 153.68L41.7748 157.718Z" fill="#498AE2"/>
<path d="M822.653 156.931L786.115 177.398L782.705 171.017L790.004 140.664C791.024 136.22 791.55 132.698 791.583 130.098C791.627 127.458 791.112 125.132 790.036 123.12C788.621 120.47 786.743 118.742 784.404 117.933C782.09 117.111 779.701 117.39 777.237 118.77C774.301 120.415 772.515 122.607 771.878 125.347C771.24 128.087 771.773 131.049 773.474 134.234L764.405 139.314C762.594 135.926 761.714 132.463 761.764 128.927C761.825 125.351 762.848 122.031 764.831 118.967C766.84 115.889 769.673 113.326 773.33 111.277C778.605 108.322 783.489 107.358 787.981 108.383C792.484 109.369 796.016 112.257 798.575 117.046C800.059 119.823 800.846 123.171 800.937 127.092C801.039 130.974 800.383 135.826 798.969 141.65L793.462 163.651L818.692 149.518L822.653 156.931Z" fill="#498AE2"/>
<path d="M1035.92 142.686C1037.51 147.594 1036.74 152.644 1033.6 157.836C1030.8 162.474 1027.33 165.139 1023.18 165.831C1019.05 166.496 1014.44 165.212 1009.34 161.981L981.827 144.556L987.632 134.949L1015.02 152.3C1020.41 155.714 1024.47 155.167 1027.19 150.661C1030.01 145.996 1030.25 141.794 1027.92 138.056L997.427 118.741L1003.23 109.135L1045.69 136.031L1040.22 145.084L1035.92 142.686Z" fill="#A4C5F1"/>
<path d="M996.339 192.538L998.762 188.855L1002.64 191.527L1000.21 195.21L1006.65 199.65L1003.4 204.595L996.962 200.155L988.544 212.955L985.508 211.069L974.355 184.806L977.715 179.698L996.339 192.538ZM987.987 205.236L993.087 197.483L981.002 189.151L981.397 189.956L987.987 205.236Z" fill="#A4C5F1"/>
<path d="M237.914 193.864L240.693 189.639L245.14 192.704L242.361 196.93L249.749 202.024L246.018 207.697L238.63 202.603L228.971 217.288L225.489 215.125L212.693 184.994L216.547 179.134L237.914 193.864ZM228.332 208.433L234.183 199.538L220.318 189.979L220.772 190.903L228.332 208.433Z" fill="#A4C5F1"/>
<path d="M998.864 27.9563L1001.64 23.7305L1006.09 26.7961L1003.31 31.0219L1010.7 36.1155L1006.97 41.7887L999.58 36.6951L989.921 51.3801L986.439 49.2168L973.643 19.0857L977.497 13.2257L998.864 27.9563ZM989.283 42.5245L995.133 33.6295L981.268 24.0711L981.722 24.9944L989.283 42.5245Z" fill="#A4C5F1"/>
<path d="M375.317 203.828L397.998 228.015L391.864 234.044L360.262 200.345L365.242 195.45L420.231 186.384L398.424 163.131L404.618 157.042L435.376 189.839L430.517 194.615L375.317 203.828Z" fill="#A4C5F1"/>
<path d="M685.055 65.942L707.736 90.1281L701.603 96.1573L670 62.4584L674.98 57.5634L729.969 48.4979L708.162 25.2444L714.357 19.1554L745.114 51.9528L740.256 56.7285L685.055 65.942Z" fill="#A4C5F1"/>
<path d="M609.746 216.409C608.599 214.188 606.941 212.895 604.774 212.529C602.629 212.151 599.24 212.432 594.605 213.372C589.971 214.313 586.083 214.672 582.942 214.448C576.924 214.006 572.714 211.46 570.312 206.81C568.208 202.739 568.101 198.504 569.989 194.106C571.9 189.696 575.459 186.082 580.665 183.263C584.121 181.392 587.536 180.371 590.91 180.202C594.285 180.033 597.367 180.732 600.155 182.301C602.932 183.847 605.074 186.077 606.579 188.992L597.986 193.645C596.624 191.008 594.742 189.392 592.34 188.798C589.949 188.168 587.242 188.672 584.218 190.309C581.399 191.836 579.522 193.637 578.587 195.712C577.674 197.776 577.786 199.906 578.921 202.104C579.877 203.954 581.519 205.049 583.847 205.387C586.162 205.702 589.557 205.403 594.032 204.491C598.494 203.555 602.284 203.204 605.403 203.44C608.509 203.653 611.11 204.435 613.205 205.788C615.288 207.117 616.999 209.077 618.338 211.668C620.513 215.878 620.654 220.095 618.762 224.316C616.881 228.503 613.224 232.067 607.79 235.009C604.198 236.954 600.544 238.075 596.827 238.37C593.121 238.63 589.812 238.024 586.898 236.552C584.008 235.068 581.744 232.741 580.107 229.572L588.734 224.9C590.216 227.769 592.295 229.485 594.972 230.049C597.649 230.613 600.727 229.953 604.205 228.069C607.206 226.444 609.14 224.612 610.007 222.574C610.885 220.5 610.798 218.445 609.746 216.409Z" fill="#A4C5F1"/>
<path d="M433.11 158.151C429.54 161.031 425.905 162.912 422.204 163.795C418.52 164.665 415.021 164.476 411.708 163.228C408.426 161.984 405.577 159.794 403.163 156.656C400.776 153.554 399.362 150.206 398.922 146.612C398.512 143.023 399.129 139.486 400.774 136C402.431 132.533 404.997 129.384 408.471 126.553L410.523 124.898C414.076 122.032 417.719 120.159 421.45 119.28C425.194 118.418 428.708 118.61 431.99 119.853C435.303 121.101 438.16 123.285 440.561 126.405C442.962 129.525 444.368 132.864 444.781 136.423C445.225 139.985 444.609 143.507 442.934 146.988C441.277 150.456 438.678 153.632 435.138 156.516L433.11 158.151ZM429.894 149.965C433.931 146.709 436.406 143.406 437.317 140.057C438.242 136.726 437.571 133.589 435.305 130.644C433.093 127.77 430.284 126.386 426.878 126.492C423.501 126.602 419.839 128.22 415.891 131.348L413.789 133.043C409.785 136.273 407.318 139.585 406.386 142.978C405.469 146.388 406.129 149.548 408.368 152.457C410.634 155.402 413.442 156.802 416.791 156.657C420.154 156.529 423.888 154.81 427.992 151.499L429.894 149.965Z" fill="#A4C5F1"/>
<path d="M849.776 139.514L868.621 155.434L861.375 164.426L810.656 121.58L826.61 101.784C831.27 96.0027 836.44 92.6636 842.12 91.7669C847.819 90.8464 853.095 92.4363 857.948 96.5364C862.918 100.735 865.439 105.671 865.51 111.347C865.6 116.999 863.229 122.822 858.398 128.816L849.776 139.514ZM842.705 133.54L851.412 122.736C853.99 119.537 855.226 116.479 855.118 113.561C854.988 110.623 853.529 107.977 850.743 105.623C848.002 103.308 845.132 102.317 842.132 102.649C839.108 102.962 836.37 104.592 833.917 107.538L825.009 118.591L842.705 133.54Z" fill="#498AE2"/>
<path d="M883.979 78.6743L867.337 82.8546L870.303 95.2284L858.913 98.0895L855.947 85.7157L817.728 95.3162C815.112 95.9731 813.338 96.9683 812.405 98.3015C811.525 99.6674 811.411 101.711 812.063 104.432C812.498 106.246 813.149 108.028 814.015 109.779L802.119 112.768C800.29 109.427 798.977 106.093 798.18 102.768C795.282 90.6747 800.35 82.9909 813.386 79.7166L852.175 69.9731L849.411 58.4415L860.801 55.5804L863.565 67.112L880.207 62.9317L883.979 78.6743Z" fill="#A4C5F1"/>
<path d="M904.718 109.803L905.646 70.6346L914.125 68.0592L911.383 118.602L903.91 120.871L874.75 80.0191L883.198 77.4529L904.718 109.803Z" fill="#A4C5F1"/>
<path d="M636.309 145.234L637.4 106.07L645.89 103.531L642.937 154.062L635.455 156.299L606.465 115.32L614.924 112.791L636.309 145.234Z" fill="#498AE2"/>
<path d="M704.268 212.766L694.69 209.47L688.314 228.889L679.721 225.931L696.27 175.531L713.66 181.517C719.366 183.481 723.342 186.3 725.588 189.975C727.834 193.651 728.146 197.958 726.524 202.896C725.418 206.265 723.686 208.816 721.328 210.547C719 212.263 716.209 213.241 712.955 213.483L717.162 238.316L717.014 238.766L707.81 235.598L704.268 212.766ZM696.998 202.443L705.828 205.482C708.727 206.48 711.234 206.52 713.349 205.605C715.472 204.666 716.957 202.904 717.806 200.319C718.693 197.619 718.62 195.27 717.588 193.271C716.578 191.28 714.586 189.746 711.613 188.672L702.544 185.55L696.998 202.443Z" fill="#498AE2"/>
<path d="M472.967 180.043L468.28 187.575L467.176 186.855C462.125 183.666 457.256 182.456 452.569 183.227C447.882 183.998 443.702 186.697 440.028 191.325C444.811 190.125 449.434 190.981 453.899 193.893C458.633 196.981 461.305 201.112 461.913 206.285C462.547 211.475 461.192 216.755 457.85 222.125C454.399 227.671 449.994 231.12 444.635 232.471C439.317 233.813 434.057 232.788 428.857 229.396C423.509 225.908 420.419 221.065 419.585 214.867C418.776 208.685 420.4 202.334 424.458 195.814L426.393 192.704C432.347 183.137 439.292 177.13 447.228 174.686C455.188 172.257 463.461 173.843 472.047 179.443L472.967 180.043ZM447.157 199.821C445.195 198.541 443.042 197.927 440.699 197.979C438.381 198.047 436.258 198.77 434.332 200.147L432.606 202.92C430.088 206.967 428.917 210.734 429.092 214.22C429.284 217.681 430.704 220.276 433.353 222.004C436.003 223.732 438.73 224.088 441.534 223.073C444.339 222.057 446.767 219.901 448.819 216.604C450.871 213.306 451.757 210.109 451.477 207.011C451.198 203.914 449.758 201.517 447.157 199.821Z" fill="#498AE2"/>
</g>
<defs>
<clipPath id="clip0">
<rect width="1032" height="239" fill="white"/>
</clipPath>
</defs>
</svg>
