<svg width="1440" height="822" viewBox="0 0 1440 822" fill="none" xmlns="http://www.w3.org/2000/svg">
<path opacity="0.5" d="M292.492 49.612C311.7 93.4124 321.33 134.475 321.382 172.799C321.555 210.819 313.209 244.753 296.345 274.601L403.323 301.483L371.549 371.424L238.451 337.075C226.67 345.521 213.328 353.012 198.425 359.547C160.955 375.978 123.433 381.584 85.8604 376.364C48.4075 370.839 14.1678 354.696 -16.8588 327.936C-47.6726 301.083 -72.8824 265.591 -92.4882 221.461L-103.901 195.435C-123.665 150.365 -133.126 107.083 -132.283 65.5912C-131.227 24.0056 -120.106 -12.281 -98.9183 -43.2687C-77.6108 -74.5614 -48.1154 -98.4701 -10.4321 -114.995C27.8899 -131.8 65.6244 -137.499 102.772 -132.092C140.039 -126.99 174.126 -110.907 205.032 -83.8419C235.846 -56.9886 261.241 -21.0736 281.218 23.903L292.492 49.612ZM200.799 61.0605C177.973 9.00779 150.875 -26.1603 119.504 -44.4438C88.1327 -62.7273 54.5636 -64.0268 18.7965 -48.3422C-15.9062 -33.1244 -37.1725 -7.52625 -45.0024 28.4522C-52.7122 64.1257 -45.9236 106.813 -24.6368 156.513L-12.8062 183.491C9.09207 233.428 36.0051 268.173 67.9328 287.726C100.073 307.186 133.921 309.12 169.475 293.529C205.455 277.751 227.087 252.118 234.371 216.632C241.868 181.051 234.204 137.235 211.377 85.1824L200.799 61.0605Z" fill="#EAF2FD"/>
<path opacity="0.5" d="M632.229 247.869L599.283 244.678L613.242 100.568L646.187 103.759L632.229 247.869ZM614.833 62.9451C615.315 57.9727 617.296 53.9971 620.778 51.0182C624.35 48.0481 629.119 46.852 635.085 47.4298C641.05 48.0076 645.501 50.0968 648.436 53.6973C651.372 57.2978 652.599 61.5842 652.117 66.5566C651.644 71.4401 649.622 75.367 646.05 78.3371C642.486 81.2184 637.722 82.3702 631.756 81.7923C625.791 81.2145 621.336 79.1697 618.392 75.658C615.546 72.0663 614.36 67.8286 614.833 62.9451Z" fill="#EAF2FD"/>
<path opacity="0.5" d="M909.805 368.12L745 215.068L794.984 161.245C811.478 143.484 827.768 133.434 843.853 131.096C859.938 128.758 875.376 134.456 890.166 148.192C897.712 155.2 902.701 163.448 905.131 172.938C907.562 182.427 906.965 192.453 903.34 203.014C913.635 196.772 924.277 194.468 935.267 196.103C946.248 197.596 956.418 202.687 965.775 211.377C981.244 225.743 988.722 241.527 988.207 258.727C987.76 275.856 979.356 293.229 962.995 310.846L909.805 368.12ZM860.782 271.768L912.283 319.597L940.431 289.288C948.378 280.731 952.362 271.977 952.384 263.024C952.406 254.072 948.455 245.916 940.532 238.558C923.403 222.65 906.903 222.862 891.033 239.194L860.782 271.768ZM839.728 252.216L864.57 225.467C872.45 216.982 876.594 208.509 877.002 200.049C877.401 191.447 873.903 183.712 866.508 176.844C858.359 169.276 850.403 166.039 842.64 167.133C834.945 168.156 826.756 173.341 818.075 182.689L793.433 209.223L839.728 252.216Z" fill="#EAF2FD"/>
<path opacity="0.5" d="M1093.74 277.882C1098.8 276.323 1103.15 276.568 1106.8 278.615C1110.42 280.588 1112.89 283.727 1114.22 288.033C1115.52 292.264 1115.23 296.214 1113.35 299.883C1111.44 303.478 1107.96 306.055 1102.9 307.613C1098.06 309.103 1093.8 308.91 1090.13 307.034C1086.46 305.158 1083.96 302.067 1082.63 297.762C1081.3 293.456 1081.58 289.469 1083.47 285.8C1085.33 282.057 1088.75 279.417 1093.74 277.882Z" fill="#EAF2FD"/>
<path opacity="0.5" d="M1268.57 268.618L1309.4 216.467L1325.34 228.946L1268.87 301.057L1154 211.111L1169.63 191.15L1268.57 268.618Z" fill="#EAF2FD"/>
<path opacity="0.5" d="M1565.22 332.187L1502.07 375.623L1312.07 99.3991L1375.22 55.9625L1565.22 332.187ZM1258.83 30.3438C1252.27 20.8129 1249.86 10.8135 1251.59 0.345453C1253.5 -10.2417 1260.17 -19.4679 1271.6 -27.3329C1283.04 -35.198 1294.04 -38.127 1304.61 -36.1198C1315.18 -34.1127 1323.74 -28.3437 1330.29 -18.8129C1336.73 -9.45223 1339 0.521695 1337.09 11.1089C1335.07 21.5259 1328.34 30.6669 1316.91 38.532C1305.47 46.3971 1294.53 49.4111 1284.08 47.5742C1273.68 45.4479 1265.27 39.7044 1258.83 30.3438Z" fill="#EAF2FD"/>
</svg>
